TITLE ""
FILE "DISC2Track24.mp3" MP3
  TRACK 01 AUDIO
    TITLE "DISC2Track24_01"
    INDEX 01 00:00:00
  TRACK 02 AUDIO
    TITLE "DISC2Track24_02"
    INDEX 01 00:07:46
  TRACK 03 AUDIO
    TITLE "DISC2Track24_03"
    INDEX 01 00:07:69
  TRACK 04 AUDIO
    TITLE "DISC2Track24_04"
    INDEX 01 00:12:51
  TRACK 05 AUDIO
    TITLE "DISC2Track24_05"
    INDEX 01 00:16:37
  TRACK 06 AUDIO
    TITLE "DISC2Track24_06"
    INDEX 01 00:20:11
  TRACK 07 AUDIO
    TITLE "DISC2Track24_07"
    INDEX 01 00:20:37
  TRACK 08 AUDIO
    TITLE "DISC2Track24_08"
    INDEX 01 00:25:06
  TRACK 09 AUDIO
    TITLE "DISC2Track24_09"
    INDEX 01 00:29:02
  TRACK 10 AUDIO
    TITLE "DISC2Track24_10"
    INDEX 01 00:32:67
  TRACK 11 AUDIO
    TITLE "DISC2Track24_11"
    INDEX 01 00:33:18
  TRACK 12 AUDIO
    TITLE "DISC2Track24_12"
    INDEX 01 00:39:14
  TRACK 13 AUDIO
    TITLE "DISC2Track24_13"
    INDEX 01 00:44:31
  TRACK 14 AUDIO
    TITLE "DISC2Track24_14"
    INDEX 01 00:49:44
  TRACK 15 AUDIO
    TITLE "DISC2Track24_15"
    INDEX 01 00:49:70
  TRACK 16 AUDIO
    TITLE "DISC2Track24_16"
    INDEX 01 00:53:73
  TRACK 17 AUDIO
    TITLE "DISC2Track24_17"
    INDEX 01 00:57:32
  TRACK 18 AUDIO
    TITLE "DISC2Track24_18"
    INDEX 01 01:00:60
  TRACK 19 AUDIO
    TITLE "DISC2Track24_19"
    INDEX 01 01:01:08
  TRACK 20 AUDIO
    TITLE "DISC2Track24_20"
    INDEX 01 01:06:01
  TRACK 21 AUDIO
    TITLE "DISC2Track24_21"
    INDEX 01 01:10:56
  TRACK 22 AUDIO
    TITLE "DISC2Track24_22"
    INDEX 01 01:15:32
  TRACK 23 AUDIO
    TITLE "DISC2Track24_23"
    INDEX 01 01:15:55
  TRACK 24 AUDIO
    TITLE "DISC2Track24_24"
    INDEX 01 01:21:66
  TRACK 25 AUDIO
    TITLE "DISC2Track24_25"
    INDEX 01 01:29:36
  TRACK 26 AUDIO
    TITLE "DISC2Track24_26"
    INDEX 01 01:36:59
  TRACK 27 AUDIO
    TITLE "DISC2Track24_27"
    INDEX 01 01:37:23
  TRACK 28 AUDIO
    TITLE "DISC2Track24_28"
    INDEX 01 01:40:45
  TRACK 29 AUDIO
    TITLE "DISC2Track24_29"
    INDEX 01 01:44:06
  TRACK 30 AUDIO
    TITLE "DISC2Track24_30"
    INDEX 01 01:47:34
  TRACK 31 AUDIO
    TITLE "DISC2Track24_31"
    INDEX 01 01:47:59
  TRACK 32 AUDIO
    TITLE "DISC2Track24_32"
    INDEX 01 01:51:29
  TRACK 33 AUDIO
    TITLE "DISC2Track24_33"
    INDEX 01 01:53:68
  TRACK 34 AUDIO
    TITLE "DISC2Track24_34"
    INDEX 01 01:56:19
  TRACK 35 AUDIO
    TITLE "DISC2Track24_35"
    INDEX 01 01:56:42
  TRACK 36 AUDIO
    TITLE "DISC2Track24_36"
    INDEX 01 02:00:44
  TRACK 37 AUDIO
    TITLE "DISC2Track24_37"
    INDEX 01 02:04:05
  TRACK 38 AUDIO
    TITLE "DISC2Track24_38"
    INDEX 01 02:07:34
  TRACK 39 AUDIO
    TITLE "DISC2Track24_39"
    INDEX 01 02:07:56
  TRACK 40 AUDIO
    TITLE "DISC2Track24_40"
    INDEX 01 02:10:54
  TRACK 41 AUDIO
    TITLE "DISC2Track24_41"
    INDEX 01 02:13:35
  TRACK 42 AUDIO
    TITLE "DISC2Track24_42"
    INDEX 01 02:16:10
